<svg width="42" height="42" viewBox="0 0 42 42" fill="none" xmlns="http://www.w3.org/2000/svg">
<path opacity="1" fill-rule="evenodd" clip-rule="evenodd" d="M5.25 36.75H36.75C37.9926 36.75 39 35.7426 39 34.5V7.5C39 6.25736 37.9926 5.25 36.75 5.25H5.25C4.00736 5.25 3 6.25736 3 7.5V34.5C3 35.7426 4.00736 36.75 5.25 36.75ZM19.5 10.5C19.5 10.0858 19.8358 9.75 20.25 9.75H21.75C22.1642 9.75 22.5 10.0858 22.5 10.5V31.5C22.5 31.9142 22.1642 32.25 21.75 32.25H20.25C19.8358 32.25 19.5 31.9142 19.5 31.5V10.5ZM11.25 15.75C11.25 15.3358 11.5858 15 12 15H13.5C13.9142 15 14.25 15.3358 14.25 15.75V31.5C14.25 31.9142 13.9142 32.25 13.5 32.25H12C11.5858 32.25 11.25 31.9142 11.25 31.5V15.75ZM27.75 19.5C27.75 19.0858 28.0858 18.75 28.5 18.75H30C30.4142 18.75 30.75 19.0858 30.75 19.5V31.5C30.75 31.9142 30.4142 32.25 30 32.25H28.5C28.0858 32.25 27.75 31.9142 27.75 31.5V19.5Z" fill="url(#paint0_linear)"/>
<defs>
<linearGradient id="paint0_linear" x1="3" y1="5.25" x2="39" y2="36.75" gradientUnits="userSpaceOnUse">
<stop offset="0.02" stop-color="#FFDF7E"/>
<stop offset="0.98" stop-color="#FFBE6E"/>
</linearGradient>
</defs>
</svg>
